# AST/ASF file generated using VICON BodyLanguage
# -----------------------------------------------
:version 1.10
:name VICON
:units
  mass 1.0
  length 0.45
  angle deg
:documentation
   .ast/.asf automatically generated from VICON data using
   VICON BodyBuilder and BodyLanguage model FoxedUp or BRILLIANT.MOD
:root
   order TX TY TZ RX RY RZ
   axis XYZ
   position 0 0 0  
   orientation 0 0 0 
:bonedata
  begin
     id 1 
     name lhipjoint
     direction 0.611804 -0.747784 0.257906 
     length 2.29243 
     axis 0 0 0  XYZ
  end
  begin
     id 2 
     name lfemur
     direction 0.34202 -0.939693 0  
     length 7.31159  
     axis 0 0 20  XYZ
    dof rx ry rz
    limits (-160.0 20.0)
           (-70.0 70.0)
           (-60.0 70.0)
  end
  begin
     id 3 
     name ltibia
     direction 0.34202 -0.939693 0   
     length 7.33391   
     axis 0 0 20   XYZ
    dof rx
    limits (-10.0 170.0)
  end
  begin
     id 4 
     name lfoot
     direction 0.122263 -0.335914 0.933924   
     length 1.76083   
     axis -90 7.62852e-016 20   XYZ
    dof rx rz
    limits (-45.0 90.0)
           (-70.0 20.0)
  end
  begin
     id 5 
     name ltoes
     direction 1.53533e-011 -4.2177e-011 1   
     length 0.879206   
     axis -90 7.62852e-016 20   XYZ
    dof rx
    limits (-90.0 20.0)
  end
  begin
     id 6 
     name rhipjoint
     direction -0.646469 -0.721248 0.248754   
     length 2.37677  
     axis 0 0 0  XYZ 
  end
  begin
     id 7 
     name rfemur
     direction -0.34202 -0.939693 0   
     length 7.18623   
     axis 0 0 -20   XYZ
    dof rx ry rz
    limits (-160.0 20.0)
           (-70.0 70.0)
           (-70.0 60.0)
  end
  begin
     id 8 
     name rtibia
     direction -0.34202 -0.939693 0   
     length 7.36567   
     axis 0 0 -20   XYZ
    dof rx
    limits (-10.0 170.0)
 end
 begin
     id 9 
     name rfoot
     direction -0.126681 -0.348054 0.928876   
     length 1.71902  
     axis -90 -7.62852e-016 -20   XYZ
    dof rx rz
    limits (-45.0 90.0)
           (-20.0 70.0)
  end
  begin
     id 10 
     name rtoes
     direction -1.53551e-011 -4.21898e-011 1   
     length 0.857792   
     axis -90 -7.62852e-016 -20   XYZ
    dof rx
    limits (-90.0 20.0)
  end
  begin
     id 11 
     name lowerback
     direction 0.0106509 0.999778 0.0181844   
     length 2.07668   
     axis 0 0 0   XYZ
    dof rx ry rz
    limits (-20.0 45.0)
           (-30.0 30.0)
           (-30.0 30.0)
  end
  begin
     id 12 
     name upperback
     direction -0.00456018 0.999989 -0.000590935   
     length 2.08011   
     axis 0 0 0   XYZ
    dof rx ry rz
    limits (-20.0 45.0)
           (-30.0 30.0)
           (-30.0 30.0)
  end
  begin
     id 13 
     name thorax
     direction -0.00910382 0.999916 -0.00923765   
     length 2.07397   
     axis 0 0 0   XYZ
    dof rx ry rz
    limits (-20.0 45.0)
           (-30.0 30.0)
           (-30.0 30.0)
  end
  begin
     id 14 
     name lowerneck
     direction 0.00171967 0.99778 0.0665733   
     length 1.67556   
     axis 0 0 0   XYZ
    dof rx ry rz
    limits (-20.0 45.0)
           (-30.0 30.0)
           (-30.0 30.0)
  end
  begin
     id 15 
     name upperneck
     direction -0.0143166 0.991302 -0.130828   
     length 1.68462   
     axis 0 0 0   XYZ
    dof rx ry rz
    limits (-20.0 45.0)
           (-30.0 30.0)
           (-30.0 30.0)
  end
  begin
     id 16
     name head
     direction -0.00606378 0.998665 -0.0512995  
     length 1.69269  
     axis 0 0 0   XYZ
    dof rx ry rz
    limits (-20.0 45.0)
           (-30.0 30.0)
           (-30.0 30.0)
  end
  begin
     id 17 
     name lclavicle
     direction 0.9638 0.179341 0.197297  
     length 4.12888  
     axis 0 0 0   XYZ
    dof ry rz
    limits (-20.0 10.0)
           (0.0 20.0)
  end
  begin
     id 18 
     name lhumerus
     direction 1 -4.48972e-011 -2.47351e-027   
     length 5.01834   
     axis -180 -30 -90   XYZ
    dof rx ry rz
    limits (-60.0 90.0)
           (-90.0 90.0)
           (-90.0 90.0)
  end
  begin
     id 19
     name lradius
     direction 1 -4.48965e-011 1.51591e-026   
     length 3.4869   
     axis -180 -30 -90   XYZ
    dof rx
    limits (-10.0 170.0)
  end
  begin
     id 20
     name lwrist
     direction 1 -4.48957e-011 2.70032e-026   
     length 1.74345   
     axis -1.81515e-014 90 90   XYZ
    dof ry
    limits (-180.0 0.0)
 end
  begin
     id 21 
     name lhand
     direction 1 -4.48951e-011 5.40064e-026   
     length 0.76799   
     axis -3.44607e-014 90 90   XYZ
    dof rx rz
    limits (-90.0 90.0)
           (-45.0 45.0)
  end
  begin
     id 22 
     name lfingers
     direction 1 -4.48971e-011 1.08013e-025   
     length 0.619174   
     axis -6.89214e-014 90 90   XYZ
    dof rx
    limits (0.0 90.0)
  end
  begin
     id 23
     name lthumb
     direction 0.707107 -6.34931e-011 0.707107   
     length 0.889013   
     axis -90 45 2.85299e-015   XYZ
    dof rx rz
    limits (-45.0 45.0)
           (-45.0 45.0)
  end
  begin
     id 24 
     name rclavicle
     direction -0.961409 0.252588 0.109054   
     length 4.04305  
     axis 0 0 0   XYZ 
    dof ry rz
    limits (-10.0 20.0)
           (-20.0 0.0)
  end
  begin
     id 25 
     name rhumerus
     direction -1 -4.4897e-011 1.33872e-017  
     length 4.70164   
     axis -180 30 90   XYZ
    dof rx ry rz
    limits (-90.0 60.0)
           (-90.0 90.0)
           (-90.0 90.0)
  end
  begin
     id 26 
     name rradius
     direction -1 -4.48954e-011 1.83844e-026   
     length 3.49911   
     axis -180 30 90   XYZ
    dof rx
    limits (-10.0 170.0)
  end
  begin
     id 27 
     name rwrist
     direction -1 -4.49008e-011 2.70032e-026   
     length 1.74955   
     axis -1.81515e-014 -90 -90   XYZ
    dof ry
    limits (-180.0 0.0)
  end
  begin
     id 28
     name rhand
     direction -1 -4.48916e-011 5.40064e-026   
     length 0.739335   
     axis -3.44607e-014 -90 -90   XYZ
    dof rx rz
    limits (-90.0 90.0)
           (-45.0 45.0)
  end
  begin
     id 29
     name rfingers
     direction -1 -4.48987e-011 1.08013e-025   
     length 0.596071   
     axis -6.89214e-014 -90 -90   XYZ
    dof rx
    limits (0.0 90.0)
  end
  begin
     id 30
     name rthumb
     direction -0.707107 -6.34935e-011 0.707107   
     length 0.855843   
     axis -90 -45 -2.85299e-015   XYZ
    dof rx rz
    limits (-45.0 45.0)
           (-45.0 45.0)
  end
:hierarchy
  begin
    root lhipjoint rhipjoint lowerback
    lhipjoint lfemur
    lfemur ltibia
    ltibia lfoot
    lfoot ltoes
    rhipjoint rfemur
    rfemur rtibia
    rtibia rfoot
    rfoot rtoes
    lowerback upperback
    upperback thorax
    thorax lowerneck lclavicle rclavicle
    lowerneck upperneck
    upperneck head
    lclavicle lhumerus
    lhumerus lradius
    lradius lwrist
    lwrist lhand lthumb
    lhand lfingers
    rclavicle rhumerus
    rhumerus rradius
    rradius rwrist
    rwrist rhand rthumb
    rhand rfingers
  end

#!OML:ASF I:\salsa\salsa 7_09\Patient 1\Session 1\dancermale.ASF
:FULLY-SPECIFIED
:DEGREES
491
root -3.12717 17.6535 -2.15955 182.261 107.534 175.584
lowerback -4.40133 -2.25906 7.80945
upperback -0.0996661 -3.39928 0.4767
thorax 1.94198 -1.61848 -4.0708
lowerneck -2.97528 7.58087 5.89409
upperneck 11.4893 10.5204 -5.24822
head 4.51871 5.20767 -2.00666
rclavicle -1.60767e-014 -4.37326e-015
rhumerus -59.0822 11.0319 -101.212
rradius 102.904
rwrist 24.3397
rhand -24.5793 11.285
rfingers 7.12502
rthumb 1.91787 -18.6861
lclavicle -1.60767e-014 -4.37326e-015
lhumerus 9.07016 -20.4317 83.0407
lradius 119.15
lwrist 8.35408
lhand -12.2824 73.0769
lfingers 7.12502
lthumb 13.7848 617.4
rfemur -29.9673 0.5175 22.5209
rtibia 46.8223
rfoot -1.1091 -3.41156
rtoes 3.13987
lfemur -16.5608 9.84708 -20.2489
ltibia 26.86
lfoot -13.8527 5.13292
ltoes -8.60694
492
root -3.13717 17.659 -2.16295 183.811 107.26 177.266
lowerback -4.07415 -2.16679 7.55691
upperback -0.288873 -3.22278 0.210254
thorax 1.5822 -1.55275 -4.1773
lowerneck -2.82291 7.4458 5.67583
upperneck 11.3278 10.3072 -4.88208
head 4.40146 5.11569 -1.88586
rclavicle -6.32135e-014 1.35174e-014
rhumerus -60.0267 10.0194 -100.209
rradius 102.895
rwrist 24.4136
rhand -24.5216 11.0366
rfingers 7.12502
rthumb 1.97359 -18.934
lclavicle -6.32135e-014 1.35174e-014
lhumerus 7.61918 -20.5466 82.0016
lradius 118.749
lwrist 7.12989
lhand -11.4644 73.0039
lfingers 7.12502
lthumb 14.5731 617.528
rfemur -28.7169 1.20543 21.5313
rtibia 45.0847
rfoot -2.74312 -2.80436
rtoes -2.48564
lfemur -18.2742 10.1024 -21.0578
ltibia 29.9444
lfoot -13.3718 4.87447
ltoes -8.13198
493
root -3.14849 17.6582 -2.1473 183.183 107.061 176.939
lowerback -3.58069 -2.0557 7.66633
upperback -0.393967 -3.0296 0.112536
thorax 1.20975 -1.47343 -4.30673
lowerneck -2.64334 7.3053 5.60647
upperneck 11.182 10.1006 -4.68262
head 4.30215 5.02506 -1.83801
rclavicle -2.70099e-014 2.34566e-014
rhumerus -60.8993 9.1009 -99.3873
rradius 102.831
rwrist 24.4898
rhand -24.2676 10.9118
rfingers 7.12502
rthumb 2.21892 -19.0564
lclavicle -2.70099e-014 2.34566e-014
lhumerus 6.21422 -20.9953 80.8063
lradius 117.893
lwrist 5.36152
lhand -10.2877 72.6453
lfingers 7.12502
lthumb 15.7066 617.972
rfemur -27.2739 1.81694 21.4722
rtibia 43.3803
rfoot -4.42329 -2.78717
rtoes -5.8439
lfemur -19.8305 10.7177 -20.9255
ltibia 33.258
lfoot -12.5451 4.10449
ltoes -6.39245
494
root -3.16716 17.6636 -2.14235 182.435 106.895 176.404
lowerback -3.1354 -1.93837 7.88369
upperback -0.486275 -2.83587 0.0595368
thorax 0.875979 -1.39176 -4.45567
lowerneck -2.11282 7.11044 5.89354
upperneck 10.6775 9.85537 -4.9771
head 4.07594 4.91289 -2.01562
rclavicle -2.68856e-014 2.3059e-014
rhumerus -61.5924 8.4465 -98.6092
rradius 102.731
rwrist 24.7058
rhand -23.9034 10.7448
rfingers 7.12502
rthumb 2.57064 -19.2195
lclavicle -2.68856e-014 2.3059e-014
lhumerus 5.07203 -21.7727 79.579
lradius 116.556
lwrist 3.528
lhand -9.3096 72.2664
lfingers 7.12502
lthumb 16.6484 618.428
rfemur -25.8605 1.90119 21.5873
rtibia 41.4967
rfoot -5.91694 -2.9194
rtoes -7.19987
lfemur -21.5221 11.4603 -20.7541
ltibia 36.6095
lfoot -11.3868 3.16934
ltoes -5.45506
495
root -3.1879 17.6663 -2.13466 181.701 106.87 175.874
lowerback -2.82653 -1.79049 7.93318
upperback -0.487433 -2.61222 0.108937
thorax 0.731661 -1.28554 -4.41429
lowerneck -1.28745 6.86998 6.36106
upperneck 9.58886 9.57461 -5.75754
head 3.65291 4.77582 -2.38853
rclavicle 3.68497e-014 1.86858e-014
rhumerus -62.0957 8.12607 -97.7985
rradius 102.582
rwrist 25.2039
rhand -23.7056 10.515
rfingers 7.12502
rthumb 2.76164 -19.4469
lclavicle 3.68497e-014 1.86858e-014
lhumerus 4.2398 -22.7735 78.3971
lradius 114.769
lwrist 1.92808
lhand -8.75666 71.7631
lfingers 7.12502
lthumb 17.1807 618.976
rfemur -24.2889 1.61263 21.7598
rtibia 39.2343
rfoot -6.9569 -2.88626
rtoes -7.93826
lfemur -23.1907 12.3397 -20.5086
ltibia 39.7522
lfoot -10.1366 2.10213
ltoes -6.3444
496
root -3.20867 17.6645 -2.12662 180.875 106.896 175.219
lowerback -2.6487 -1.64217 7.94714
upperback -0.449067 -2.40063 0.241091
thorax 0.705265 -1.17916 -4.27472
lowerneck -1.03037 6.69617 6.51895
upperneck 8.78503 9.32758 -5.98758
head 3.74538 4.67551 -2.78654
rclavicle 6.44311e-014 -1.78906e-014
rhumerus -62.4348 8.07168 -97.0363
rradius 102.392
rwrist 25.8805
rhand -23.7358 10.2771
rfingers 7.12502
rthumb 2.73248 -19.6852
lclavicle 6.44311e-014 -1.78906e-014
lhumerus 3.6215 -23.9277 77.2834
lradius 112.592
lwrist 0.523396
lhand -8.51522 71.0032
lfingers 7.12502
lthumb 17.413 619.757
rfemur -22.6623 1.11057 21.9968
rtibia 36.747
rfoot -7.58379 -2.65879
rtoes -7.81359
lfemur -24.783 13.0655 -20.1397
ltibia 42.5274
lfoot -8.79279 0.954478
ltoes -6.85451
497
root -3.23486 17.6567 -2.12658 180.325 107.055 174.872
lowerback -2.40334 -1.49513 7.91
upperback -0.424994 -2.18217 0.384743
thorax 0.628425 -1.07181 -4.09275
lowerneck -1.19072 6.62324 6.32049
upperneck 8.82628 9.23631 -6.03726
head 3.77424 4.61975 -2.76709
rclavicle -2.75565e-014 -5.1684e-015
rhumerus -62.64 8.26366 -96.4364
rradius 102.302
rwrist 26.1111
rhand -23.5621 9.82972
rfingers 7.12502
rthumb 2.90028 -20.1303
lclavicle -2.75565e-014 -5.1684e-015
lhumerus 3.08501 -25.2336 76.2234
lradius 110.157
lwrist -0.655165
lhand -8.47515 70.3033
lfingers 7.12502
lthumb 17.4516 620.46
rfemur -21.2791 0.724975 22.1959
rtibia 34.7186
rfoot -8.19372 -2.45722
rtoes -7.24215
lfemur -26.1663 13.6408 -19.8066
ltibia 44.9725
lfoot -7.29943 -0.0712727
ltoes -5.49104
498
root -3.26229 17.6464 -2.13345 180.771 107.479 175.186
lowerback -2.46944 -1.30159 7.78505
upperback -0.581173 -1.91924 0.428139
thorax 0.543129 -0.947859 -3.97208
lowerneck -1.13768 6.64184 6.28411
upperneck 8.87968 9.27657 -6.09481
head 3.78748 4.63857 -2.77953
rclavicle -8.28684e-014 1.31198e-014
rhumerus -62.7856 8.60441 -96.1766
rradius 102.251
rwrist 25.9116
rhand -23.1025 9.38766
rfingers 7.12502
rthumb 3.34415 -20.5659
lclavicle -8.28684e-014 1.31198e-014
lhumerus 2.32538 -26.6775 75.1247
lradius 107.658
lwrist -1.9174
lhand -8.45932 69.767
lfingers 7.12502
lthumb 17.4668 620.998
rfemur -20.7366 0.650505 22.2454
rtibia 33.3785
rfoot -8.94425 -2.46692
rtoes -6.74111
lfemur -27.7362 14.301 -19.7532
ltibia 47.1263
lfoot -5.89214 -0.900177
ltoes -4.35536
499
root -3.28024 17.621 -2.12806 179.885 108.09 174.358
lowerback -2.45833 -1.16026 7.93477
upperback -0.687152 -1.72709 0.52886
thorax 0.449665 -0.857341 -3.9455
lowerneck -0.910817 6.74741 6.38204
upperneck 8.87062 9.43638 -6.16766
head 3.76424 4.72387 -2.82137
rclavicle 3.13583e-014 7.15625e-015
rhumerus -62.7961 9.09718 -96.2697
rradius 102.093
rwrist 25.6595
rhand -22.6805 9.24691
rfingers 7.12502
rthumb 3.75167 -20.6998
lclavicle 3.13583e-014 7.15625e-015
lhumerus 1.22134 -28.1272 74.0968
lradius 105.174
lwrist -3.67509
lhand -8.56505 69.2695
lfingers 7.12502
lthumb 17.3651 621.486
rfemur -20.0286 1.10697 22.7943
rtibia 32.1459
rfoot -9.70452 -2.91896
rtoes -5.49593
lfemur -28.7177 15.0945 -19.066
ltibia 48.8272
lfoot -4.68942 -1.7126
ltoes -4.87371
500
root -3.30186 17.5928 -2.1359 179.782 108.698 174.375
lowerback -2.38701 -1.09628 7.99336
upperback -0.796198 -1.63031 0.529564
thorax 0.307023 -0.81733 -3.97222
lowerneck -0.728071 6.88347 6.4393
upperneck 8.84496 9.63848 -6.27183
head 3.74672 4.8269 -2.86329
rclavicle -1.2921e-014 -1.70955e-014
rhumerus -62.545 9.73869 -96.5219
rradius 101.83
rwrist 25.29
rhand -22.4684 9.17659
rfingers 7.12502
rthumb 3.95645 -20.7664
lclavicle -1.2921e-014 -1.70955e-014
lhumerus -0.00060422 -29.4709 73.2632
lradius 102.498
lwrist -5.70657
lhand -8.99885 68.4966
lfingers 7.12502
lthumb 16.9475 622.223
rfemur -19.3777 1.54575 23.0391
rtibia 31.0807
rfoot -10.5254 -3.41253
rtoes -4.23378
lfemur -29.3853 15.5951 -18.6786
ltibia 50.095
lfoot -3.77027 -2.55917
ltoes -5.81346
501
root -3.3293 17.5568 -2.14911 180.546 109.414 175.159
lowerback -2.43913 -1.02169 7.824
upperback -0.914843 -1.52628 0.466326
thorax 0.229508 -0.771735 -3.94073
lowerneck -0.561864 7.04035 6.47751
upperneck 8.72197 9.85993 -6.36168
head 3.69762 4.93853 -2.89617
rclavicle 8.63222e-014 -9.93923e-015
rhumerus -62.0065 10.3611 -96.8284
rradius 101.482
rwrist 24.9899
rhand -22.2562 9.15006
rfingers 7.12502
rthumb 4.16138 -20.789
lclavicle 8.63222e-014 -9.93923e-015
lhumerus -1.1626 -30.6578 72.6018
lradius 99.4393
lwrist -7.40166
lhand -9.6022 67.466
lfingers 7.12502
lthumb 16.3667 623.205
rfemur -19.0706 2.14309 22.9906
rtibia 30.3054
rfoot -11.4462 -3.989
rtoes -3.23733
lfemur -30.0717 15.9058 -18.5879
ltibia 51.1143
lfoot -3.12919 -3.31695
ltoes -7.29345
502
root -3.32853 17.5334 -2.16314 180.569 108.932 175.253
lowerback -2.99322 -1.32797 8.06199
upperback -0.890426 -1.99268 0.410498
thorax 0.496318 -0.993844 -4.15673
lowerneck -0.523411 7.21486 6.4912
upperneck 8.61713 10.0922 -6.3828
head 3.67378 5.05374 -2.89579
rclavicle 4.41426e-014 3.1408e-014
rhumerus -61.2133 10.8132 -97.162
rradius 101.037
rwrist 24.9985
rhand -21.8488 9.318
rfingers 7.12502
rthumb 4.55473 -20.613
lclavicle 4.41426e-014 3.1408e-014
lhumerus -2.19633 -31.6204 72.1137
lradius 96.032
lwrist -8.61061
lhand -10.2766 66.7158
lfingers 7.12502
lthumb 15.7173 623.902
rfemur -18.1314 1.78598 23.0755
rtibia 28.9831
rfoot -12.4081 -4.7349
rtoes -2.24714
lfemur -30.4464 14.9521 -18.2937
ltibia 51.8165
lfoot -2.9247 -4.44799
ltoes -10.1353
503
root -3.38213 17.4922 -2.20278 182.335 110.283 176.934
lowerback -2.76524 -1.08142 7.85837
upperback -1.09951 -1.62773 0.181699
thorax 0.198602 -0.830299 -4.26258
lowerneck -0.620659 7.38491 6.5014
upperneck 8.62892 10.3169 -6.39029
head 3.71512 5.1628 -2.88439
rclavicle -5.83433e-014 -7.15625e-015
rhumerus -60.238 11.0491 -97.556
rradius 100.486
rwrist 25.1459
rhand -21.4739 9.3749
rfingers 7.12502
rthumb 4.91674 -20.5481
lclavicle -5.83433e-014 -7.15625e-015
lhumerus -3.06511 -32.241 71.7795
lradius 92.4766
lwrist -9.70764
lhand -10.8391 66.2251
lfingers 7.12502
lthumb 15.1755 624.351
rfemur -18.6822 2.62003 22.582
rtibia 29.0885
rfoot -13.2608 -4.82049
rtoes -1.72089
lfemur -31.2065 15.2502 -18.4873
ltibia 52.6093
lfoot -3.40733 -5.08031
ltoes -16.1678
504
root -3.42949 17.4434 -2.23821 182.53 111.308 177.203
lowerback -2.37502 -0.980441 8.12531
upperback -1.29136 -1.45366 0.0266602
thorax -0.208357 -0.766828 -4.55861
lowerneck -0.475112 7.52038 6.66945
upperneck 8.50258 10.4937 -6.39021
head 3.66872 5.25823 -2.91169
rclavicle -1.49585e-014 -7.15625e-015
rhumerus -59.3089 11.0569 -98.1394
rradius 99.9377
rwrist 25.2948
rhand -21.1481 9.33588
rfingers 7.12502
rthumb 5.23139 -20.5795
lclavicle -1.49585e-014 -7.15625e-015
lhumerus -3.91917 -32.4287 71.5985
lradius 88.904
lwrist -11.047
lhand -11.1965 65.6252
lfingers 7.12502
lthumb 14.8312 624.926
rfemur -18.9078 3.24282 22.58
rtibia 29.0837
rfoot -13.9145 -4.98943
rtoes -1.04611
lfemur -31.7112 15.3543 -17.9724
ltibia 53.3887
lfoot -4.56833 -6.00517
ltoes -22.7096
505
root -3.47922 17.3969 -2.29991 182.756 112.205 177.35
lowerback -1.9851 -0.952892 8.66444
upperback -1.56086 -1.37437 -0.127258
thorax -0.715852 -0.761083 -5.0093
lowerneck -0.268808 7.68181 6.79702
upperneck 8.30064 10.7046 -6.37207
head 3.583 5.37064 -2.92701
rclavicle -9.82742e-014 4.77083e-015
rhumerus -58.4582 10.9855 -98.7831
rradius 99.4735
rwrist 25.4085
rhand -21.0575 9.3201
rfingers 7.12502
rthumb 5.31887 -20.5931
lclavicle -9.82742e-014 4.77083e-015
lhumerus -4.69764 -32.0341 71.6612
lradius 85.1777
lwrist -12.7397
lhand -11.5758 65.0696
lfingers 7.12502
lthumb 14.4658 625.455
rfemur -19.4399 3.44662 22.487
rtibia 29.2572
rfoot -14.4439 -4.72789
rtoes -0.459377
lfemur -32.3291 15.0617 -17.5123
ltibia 54.2631
lfoot -6.34378 -6.94059
ltoes -25.1678
